{
	"asset":{
		"generator":"Khronos glTF Blender I/O v4.2.60",
		"version":"2.0"
	},
	"scene":0,
	"scenes":[
		{
			"name":"Scene",
			"nodes":[
				0,
				1,
				2,
				3,
				4,
				5
			]
		}
	],
	"nodes":[
		{
			"mesh":0,
			"name":"Cube",
			"translation":[
				-0.09167766571044922,
				4.283328533172607,
				0.0042694807052612305
			]
		},
		{
			"mesh":1,
			"name":"Roof",
			"translation":[
				-0.09167766571044922,
				4.283328533172607,
				0.0042694807052612305
			]
		},
		{
			"mesh":2,
			"name":"Fence",
			"translation":[
				-0.09167766571044922,
				4.283328533172607,
				0.0042694807052612305
			]
		},
		{
			"mesh":3,
			"name":"Door knob",
			"rotation":[
				0,
				0,
				-0.7071068286895752,
				0.7071068286895752
			],
			"scale":[
				0.07027316093444824,
				0.07027316093444824,
				0.07027316093444824
			],
			"translation":[
				1.339748740196228,
				2.020336866378784,
				-0.2884650230407715
			]
		},
		{
			"mesh":4,
			"name":"Door knob upstairs",
			"rotation":[
				0,
				0,
				-0.7071068286895752,
				0.7071068286895752
			],
			"scale":[
				-0.03119136393070221,
				-0.03119136393070221,
				-0.03119136393070221
			],
			"translation":[
				1.4155336618423462,
				6.401444435119629,
				0.7746920585632324
			]
		},
		{
			"mesh":5,
			"name":"Window upstairs",
			"scale":[
				0.809688925743103,
				0.5677394866943359,
				1
			],
			"translation":[
				0.8155059814453125,
				6.784340858459473,
				-0.47753095626831055
			]
		}
	],
	"materials":[
		{
			"doubleSided":true,
			"name":"Building",
			"pbrMetallicRoughness":{
				"baseColorFactor":[
					1,
					0.6794009208679199,
					0.2826996147632599,
					1
				],
				"metallicFactor":0,
				"roughnessFactor":0.5
			}
		},
		{
			"doubleSided":true,
			"name":"Foundation",
			"pbrMetallicRoughness":{
				"baseColorFactor":[
					0.11713863909244537,
					0.12492096424102783,
					0.12846940755844116,
					1
				],
				"metallicFactor":0,
				"roughnessFactor":0.9871795177459717
			}
		},
		{
			"doubleSided":true,
			"name":"Door",
			"pbrMetallicRoughness":{
				"baseColorFactor":[
					0.11639035493135452,
					0.06243165582418442,
					0.02632935158908367,
					1
				],
				"metallicFactor":0,
				"roughnessFactor":0.6623931527137756
			}
		},
		{
			"doubleSided":true,
			"name":"Roof",
			"pbrMetallicRoughness":{
				"baseColorFactor":[
					0.025543484836816788,
					0.08407191187143326,
					0.020791741088032722,
					1
				],
				"metallicFactor":0,
				"roughnessFactor":0.7136752009391785
			}
		},
		{
			"doubleSided":true,
			"name":"Fence.001",
			"pbrMetallicRoughness":{
				"baseColorFactor":[
					0.11934225261211395,
					0.06407564878463745,
					0.0300697460770607,
					1
				],
				"metallicFactor":0,
				"roughnessFactor":0.8760683536529541
			}
		},
		{
			"doubleSided":true,
			"name":"Door knob",
			"pbrMetallicRoughness":{
				"baseColorFactor":[
					0.9195971488952637,
					0.8924497365951538,
					0.025978615507483482,
					1
				],
				"metallicFactor":0.8376070261001587,
				"roughnessFactor":0.18376067280769348
			}
		},
		{
			"doubleSided":true,
			"name":"Mail box",
			"pbrMetallicRoughness":{
				"baseColorFactor":[
					0.43709689378738403,
					0.43709689378738403,
					0.43709689378738403,
					1
				],
				"metallicFactor":0.752136766910553,
				"roughnessFactor":0.1666666567325592
			}
		},
		{
			"doubleSided":true,
			"name":"Material.001",
			"pbrMetallicRoughness":{
				"baseColorFactor":[
					0.8001965880393982,
					0.6448833346366882,
					0.06695857644081116,
					1
				],
				"metallicFactor":0.811965823173523,
				"roughnessFactor":0.3205130100250244
			}
		},
		{
			"doubleSided":true,
			"name":"Glass.001",
			"pbrMetallicRoughness":{
				"metallicFactor":0.8717948794364929,
				"roughnessFactor":0.0982905849814415
			}
		},
		{
			"doubleSided":true,
			"name":"Frame.001",
			"pbrMetallicRoughness":{
				"baseColorFactor":[
					0.5676531791687012,
					0.5676531791687012,
					0.5676531791687012,
					1
				],
				"metallicFactor":0,
				"roughnessFactor":0.6495726704597473
			}
		}
	],
	"meshes":[
		{
			"name":"Cube.009",
			"primitives":[
				{
					"attributes":{
						"POSITION":0,
						"NORMAL":1,
						"TEXCOORD_0":2
					},
					"indices":3,
					"material":0
				},
				{
					"attributes":{
						"POSITION":4,
						"NORMAL":5,
						"TEXCOORD_0":6
					},
					"indices":7,
					"material":1
				},
				{
					"attributes":{
						"POSITION":8,
						"NORMAL":9,
						"TEXCOORD_0":10
					},
					"indices":11,
					"material":2
				}
			]
		},
		{
			"name":"Cube.010",
			"primitives":[
				{
					"attributes":{
						"POSITION":12,
						"NORMAL":13,
						"TEXCOORD_0":14
					},
					"indices":15,
					"material":3
				}
			]
		},
		{
			"name":"Cube.012",
			"primitives":[
				{
					"attributes":{
						"POSITION":16,
						"NORMAL":17,
						"TEXCOORD_0":18
					},
					"indices":19,
					"material":0
				},
				{
					"attributes":{
						"POSITION":20,
						"NORMAL":21,
						"TEXCOORD_0":22
					},
					"indices":23,
					"material":4
				}
			]
		},
		{
			"name":"Cylinder.001",
			"primitives":[
				{
					"attributes":{
						"POSITION":24,
						"NORMAL":25,
						"TEXCOORD_0":26
					},
					"indices":27,
					"material":5
				},
				{
					"attributes":{
						"POSITION":28,
						"NORMAL":29,
						"TEXCOORD_0":30
					},
					"indices":31,
					"material":6
				}
			]
		},
		{
			"name":"Cylinder.004",
			"primitives":[
				{
					"attributes":{
						"POSITION":32,
						"NORMAL":33,
						"TEXCOORD_0":34
					},
					"indices":35,
					"material":7
				}
			]
		},
		{
			"name":"Cube.015",
			"primitives":[
				{
					"attributes":{
						"POSITION":36,
						"NORMAL":37,
						"TEXCOORD_0":38
					},
					"indices":39,
					"material":8
				},
				{
					"attributes":{
						"POSITION":40,
						"NORMAL":41,
						"TEXCOORD_0":42
					},
					"indices":43,
					"material":9
				}
			]
		}
	],
	"accessors":[
		{
			"bufferView":0,
			"componentType":5126,
			"count":1282,
			"max":[
				1.8304996490478516,
				4.267381191253662,
				1.8304996490478516
			],
			"min":[
				-1.8304996490478516,
				-3.8776333332061768,
				-1.8304996490478516
			],
			"type":"VEC3"
		},
		{
			"bufferView":1,
			"componentType":5126,
			"count":1282,
			"type":"VEC3"
		},
		{
			"bufferView":2,
			"componentType":5126,
			"count":1282,
			"type":"VEC2"
		},
		{
			"bufferView":3,
			"componentType":5123,
			"count":3723,
			"type":"SCALAR"
		},
		{
			"bufferView":4,
			"componentType":5126,
			"count":26,
			"max":[
				1.8304996490478516,
				-3.6669960021972656,
				1.8304996490478516
			],
			"min":[
				-1.8304996490478516,
				-3.8776333332061768,
				-1.8304996490478516
			],
			"type":"VEC3"
		},
		{
			"bufferView":5,
			"componentType":5126,
			"count":26,
			"type":"VEC3"
		},
		{
			"bufferView":6,
			"componentType":5126,
			"count":26,
			"type":"VEC2"
		},
		{
			"bufferView":7,
			"componentType":5123,
			"count":48,
			"type":"SCALAR"
		},
		{
			"bufferView":8,
			"componentType":5126,
			"count":137,
			"max":[
				1.6658384799957275,
				3.076280117034912,
				1.4756404161453247
			],
			"min":[
				1.2314790487289429,
				-3.815314769744873,
				-0.8414546251296997
			],
			"type":"VEC3"
		},
		{
			"bufferView":9,
			"componentType":5126,
			"count":137,
			"type":"VEC3"
		},
		{
			"bufferView":10,
			"componentType":5126,
			"count":137,
			"type":"VEC2"
		},
		{
			"bufferView":11,
			"componentType":5123,
			"count":276,
			"type":"SCALAR"
		},
		{
			"bufferView":12,
			"componentType":5126,
			"count":84,
			"max":[
				2.055551290512085,
				4.429604530334473,
				2.480929374694824
			],
			"min":[
				-2.055551290512085,
				3.954296350479126,
				-2.4809298515319824
			],
			"type":"VEC3"
		},
		{
			"bufferView":13,
			"componentType":5126,
			"count":84,
			"type":"VEC3"
		},
		{
			"bufferView":14,
			"componentType":5126,
			"count":84,
			"type":"VEC2"
		},
		{
			"bufferView":15,
			"componentType":5123,
			"count":156,
			"type":"SCALAR"
		},
		{
			"bufferView":16,
			"componentType":5126,
			"count":228,
			"max":[
				2.331061363220215,
				1.7656587362289429,
				1.5870513916015625
			],
			"min":[
				1.52222740650177,
				1.2491973638534546,
				-1.5870513916015625
			],
			"type":"VEC3"
		},
		{
			"bufferView":17,
			"componentType":5126,
			"count":228,
			"type":"VEC3"
		},
		{
			"bufferView":18,
			"componentType":5126,
			"count":228,
			"type":"VEC2"
		},
		{
			"bufferView":19,
			"componentType":5123,
			"count":390,
			"type":"SCALAR"
		},
		{
			"bufferView":20,
			"componentType":5126,
			"count":378,
			"max":[
				2.331061363220215,
				1.7656587362289429,
				1.5870513916015625
			],
			"min":[
				1.52222740650177,
				1.1825488805770874,
				-1.5870513916015625
			],
			"type":"VEC3"
		},
		{
			"bufferView":21,
			"componentType":5126,
			"count":378,
			"type":"VEC3"
		},
		{
			"bufferView":22,
			"componentType":5126,
			"count":378,
			"type":"VEC2"
		},
		{
			"bufferView":23,
			"componentType":5123,
			"count":966,
			"type":"SCALAR"
		},
		{
			"bufferView":24,
			"componentType":5126,
			"count":286,
			"max":[
				8.862882614135742,
				1.8534315824508667,
				11.404199600219727
			],
			"min":[
				-1.0440480709075928,
				-2.5267417430877686,
				-1.0440459251403809
			],
			"type":"VEC3"
		},
		{
			"bufferView":25,
			"componentType":5126,
			"count":286,
			"type":"VEC3"
		},
		{
			"bufferView":26,
			"componentType":5126,
			"count":286,
			"type":"VEC2"
		},
		{
			"bufferView":27,
			"componentType":5123,
			"count":498,
			"type":"SCALAR"
		},
		{
			"bufferView":28,
			"componentType":5126,
			"count":4,
			"max":[
				8.598809242248535,
				-0.2704433798789978,
				11.14012622833252
			],
			"min":[
				7.571415424346924,
				-0.2704433798789978,
				1.0986785888671875
			],
			"type":"VEC3"
		},
		{
			"bufferView":29,
			"componentType":5126,
			"count":4,
			"type":"VEC3"
		},
		{
			"bufferView":30,
			"componentType":5126,
			"count":4,
			"type":"VEC2"
		},
		{
			"bufferView":31,
			"componentType":5123,
			"count":6,
			"type":"SCALAR"
		},
		{
			"bufferView":32,
			"componentType":5126,
			"count":288,
			"max":[
				1.172184944152832,
				1,
				1.1721879243850708
			],
			"min":[
				-1.1721901893615723,
				-2.1061391830444336,
				-1.1721872091293335
			],
			"type":"VEC3"
		},
		{
			"bufferView":33,
			"componentType":5126,
			"count":288,
			"type":"VEC3"
		},
		{
			"bufferView":34,
			"componentType":5126,
			"count":288,
			"type":"VEC2"
		},
		{
			"bufferView":35,
			"componentType":5123,
			"count":492,
			"type":"SCALAR"
		},
		{
			"bufferView":36,
			"componentType":5126,
			"count":46,
			"max":[
				0.9231096506118774,
				1,
				1
			],
			"min":[
				-1,
				-1,
				-1
			],
			"type":"VEC3"
		},
		{
			"bufferView":37,
			"componentType":5126,
			"count":46,
			"type":"VEC3"
		},
		{
			"bufferView":38,
			"componentType":5126,
			"count":46,
			"type":"VEC2"
		},
		{
			"bufferView":39,
			"componentType":5123,
			"count":72,
			"type":"SCALAR"
		},
		{
			"bufferView":40,
			"componentType":5126,
			"count":66,
			"max":[
				1,
				1,
				1
			],
			"min":[
				-1,
				-1,
				-1
			],
			"type":"VEC3"
		},
		{
			"bufferView":41,
			"componentType":5126,
			"count":66,
			"type":"VEC3"
		},
		{
			"bufferView":42,
			"componentType":5126,
			"count":66,
			"type":"VEC2"
		},
		{
			"bufferView":43,
			"componentType":5123,
			"count":132,
			"type":"SCALAR"
		}
	],
	"bufferViews":[
		{
			"buffer":0,
			"byteLength":15384,
			"byteOffset":0,
			"target":34962
		},
		{
			"buffer":0,
			"byteLength":15384,
			"byteOffset":15384,
			"target":34962
		},
		{
			"buffer":0,
			"byteLength":10256,
			"byteOffset":30768,
			"target":34962
		},
		{
			"buffer":0,
			"byteLength":7446,
			"byteOffset":41024,
			"target":34963
		},
		{
			"buffer":0,
			"byteLength":312,
			"byteOffset":48472,
			"target":34962
		},
		{
			"buffer":0,
			"byteLength":312,
			"byteOffset":48784,
			"target":34962
		},
		{
			"buffer":0,
			"byteLength":208,
			"byteOffset":49096,
			"target":34962
		},
		{
			"buffer":0,
			"byteLength":96,
			"byteOffset":49304,
			"target":34963
		},
		{
			"buffer":0,
			"byteLength":1644,
			"byteOffset":49400,
			"target":34962
		},
		{
			"buffer":0,
			"byteLength":1644,
			"byteOffset":51044,
			"target":34962
		},
		{
			"buffer":0,
			"byteLength":1096,
			"byteOffset":52688,
			"target":34962
		},
		{
			"buffer":0,
			"byteLength":552,
			"byteOffset":53784,
			"target":34963
		},
		{
			"buffer":0,
			"byteLength":1008,
			"byteOffset":54336,
			"target":34962
		},
		{
			"buffer":0,
			"byteLength":1008,
			"byteOffset":55344,
			"target":34962
		},
		{
			"buffer":0,
			"byteLength":672,
			"byteOffset":56352,
			"target":34962
		},
		{
			"buffer":0,
			"byteLength":312,
			"byteOffset":57024,
			"target":34963
		},
		{
			"buffer":0,
			"byteLength":2736,
			"byteOffset":57336,
			"target":34962
		},
		{
			"buffer":0,
			"byteLength":2736,
			"byteOffset":60072,
			"target":34962
		},
		{
			"buffer":0,
			"byteLength":1824,
			"byteOffset":62808,
			"target":34962
		},
		{
			"buffer":0,
			"byteLength":780,
			"byteOffset":64632,
			"target":34963
		},
		{
			"buffer":0,
			"byteLength":4536,
			"byteOffset":65412,
			"target":34962
		},
		{
			"buffer":0,
			"byteLength":4536,
			"byteOffset":69948,
			"target":34962
		},
		{
			"buffer":0,
			"byteLength":3024,
			"byteOffset":74484,
			"target":34962
		},
		{
			"buffer":0,
			"byteLength":1932,
			"byteOffset":77508,
			"target":34963
		},
		{
			"buffer":0,
			"byteLength":3432,
			"byteOffset":79440,
			"target":34962
		},
		{
			"buffer":0,
			"byteLength":3432,
			"byteOffset":82872,
			"target":34962
		},
		{
			"buffer":0,
			"byteLength":2288,
			"byteOffset":86304,
			"target":34962
		},
		{
			"buffer":0,
			"byteLength":996,
			"byteOffset":88592,
			"target":34963
		},
		{
			"buffer":0,
			"byteLength":48,
			"byteOffset":89588,
			"target":34962
		},
		{
			"buffer":0,
			"byteLength":48,
			"byteOffset":89636,
			"target":34962
		},
		{
			"buffer":0,
			"byteLength":32,
			"byteOffset":89684,
			"target":34962
		},
		{
			"buffer":0,
			"byteLength":12,
			"byteOffset":89716,
			"target":34963
		},
		{
			"buffer":0,
			"byteLength":3456,
			"byteOffset":89728,
			"target":34962
		},
		{
			"buffer":0,
			"byteLength":3456,
			"byteOffset":93184,
			"target":34962
		},
		{
			"buffer":0,
			"byteLength":2304,
			"byteOffset":96640,
			"target":34962
		},
		{
			"buffer":0,
			"byteLength":984,
			"byteOffset":98944,
			"target":34963
		},
		{
			"buffer":0,
			"byteLength":552,
			"byteOffset":99928,
			"target":34962
		},
		{
			"buffer":0,
			"byteLength":552,
			"byteOffset":100480,
			"target":34962
		},
		{
			"buffer":0,
			"byteLength":368,
			"byteOffset":101032,
			"target":34962
		},
		{
			"buffer":0,
			"byteLength":144,
			"byteOffset":101400,
			"target":34963
		},
		{
			"buffer":0,
			"byteLength":792,
			"byteOffset":101544,
			"target":34962
		},
		{
			"buffer":0,
			"byteLength":792,
			"byteOffset":102336,
			"target":34962
		},
		{
			"buffer":0,
			"byteLength":528,
			"byteOffset":103128,
			"target":34962
		},
		{
			"buffer":0,
			"byteLength":264,
			"byteOffset":103656,
			"target":34963
		}
	],
	"buffers":[
		{
			"byteLength":103920,
			"uri":"PortBuilding_1.bin"
		}
	]
}
